# xmcd
#
# Track frame offsets: 
#        150
#        16190
#        34613
#        53844
#        71112
#        84894
#        103979
#        125431
#        139509
#        155724
#
# Disc length: 2338 seconds
#
# Revision: 0
# Processed by: cddbd v1.5.2PL0 Copyright (c) Steve Scherf et al.
# Submitted via: ExactAudioCopyFreeDBPlugin 1.0
#
DISCID=7f09200a
DTITLE=Brian Grilli - Brian Grilli
DYEAR=2016
DGENRE=Country
TTITLE0=Like a Glove
TTITLE1=My Hometown
TTITLE2=River of Whiskey
TTITLE3=Deep South Symphony
TTITLE4=Get out of This Life
TTITLE5=Obsession
TTITLE6=Keep on Keeping' On
TTITLE7=Don't Give Up
TTITLE8=Come Back to Me
TTITLE9=California
EXTD=
EXTT0=
EXTT1=
EXTT2=
EXTT3=
EXTT4=
EXTT5=
EXTT6=
EXTT7=
EXTT8=
EXTT9=
PLAYORDER=
